<svg width="16" height="17" viewBox="0 0 16 17" fill="none" xmlns="http://www.w3.org/2000/svg">
<mask id="path-1-inside-1_29_208" fill="white">
<path d="M14.217 8.96371C13.9164 8.79013 13.5829 8.63417 13.2329 8.49997C13.5829 8.36579 13.9164 8.2098 14.217 8.03625C15.8641 7.08528 16.1323 5.81008 15.2316 4.24997C14.3315 2.69101 13.0936 2.28381 11.4453 3.23545C11.1446 3.40903 10.8428 3.61987 10.5516 3.85585C10.6104 3.4857 10.6421 3.1189 10.6421 2.77173C10.6421 0.869855 9.6718 0 7.87037 0C6.07032 0 5.09864 0.868527 5.09864 2.77173C5.09864 3.1189 5.13034 3.4857 5.18911 3.85588C4.89789 3.6199 4.59611 3.40903 4.29542 3.23545C2.64831 2.28451 1.4099 2.68992 0.509133 4.25C-0.390904 5.80882 -0.124582 7.08465 1.52372 8.03625C1.82441 8.20984 2.1579 8.36579 2.50783 8.49997C2.15787 8.63414 1.82434 8.79013 1.52369 8.96371C-0.12342 9.91465 -0.391601 11.1899 0.509133 12.75C1.42919 14.3436 2.68029 14.697 4.29542 13.7645C4.59611 13.5909 4.89789 13.3801 5.18911 13.1441C5.13034 13.5143 5.09864 13.8811 5.09864 14.2282C5.09864 16.1301 6.06893 17 7.87037 17C9.67041 17 10.6421 16.1315 10.6421 14.2283C10.6421 13.8811 10.6104 13.5143 10.5516 13.1442C10.8428 13.3801 11.1446 13.591 11.4453 13.7646C13.0129 14.6696 14.2843 14.3906 15.2316 12.75C16.1316 11.1911 15.8653 9.91535 14.217 8.96371ZM11.9997 4.19561C13.2104 3.49659 13.7321 3.87029 14.2714 4.80436C14.8107 5.73843 14.8734 6.37713 13.6627 7.07615C12.9511 7.48697 11.9909 7.78962 11.1392 7.88528C10.9972 7.12838 10.5981 6.46106 10.0362 5.97782C10.5449 5.28756 11.2876 4.6067 11.9997 4.19561ZM7.87037 1.10869C8.94894 1.10869 9.53341 1.37371 9.53341 2.77173C9.53341 3.59341 9.31543 4.57635 8.97238 5.36181C8.62733 5.24028 8.25648 5.17391 7.87037 5.17391C7.48428 5.17391 7.11343 5.24028 6.76835 5.36181C6.4253 4.57635 6.20732 3.59347 6.20732 2.77173C6.20732 1.37371 6.79183 1.10869 7.87037 1.10869ZM2.07801 7.07612C0.867328 6.37712 0.929983 5.7384 1.4693 4.80436C2.00859 3.87036 2.53041 3.49672 3.74106 4.19561C4.45313 4.60677 5.19585 5.28756 5.70453 5.97779C5.1426 6.461 4.74346 7.12831 4.60145 7.88524C3.74979 7.78959 2.78959 7.48691 2.07801 7.07612ZM3.74106 12.8044C2.53037 13.5034 2.00859 13.1297 1.4693 12.1956C0.930016 11.2616 0.867328 10.6229 2.07801 9.92385C2.78962 9.51303 3.74979 9.21038 4.60148 9.11472C4.74349 9.87162 5.14263 10.5389 5.70456 11.0222C5.19585 11.7124 4.45313 12.3933 3.74106 12.8044ZM7.87037 15.8913C6.7918 15.8913 6.20732 15.6263 6.20732 14.2283C6.20732 13.4066 6.4253 12.4236 6.76835 11.6382C7.1134 11.7597 7.48428 11.8261 7.87037 11.8261C8.25645 11.8261 8.6273 11.7597 8.97238 11.6382C9.31543 12.4236 9.53341 13.4066 9.53341 14.2283C9.53341 15.6263 8.94894 15.8913 7.87037 15.8913ZM7.87037 10.7174C6.64769 10.7174 5.65296 9.72267 5.65296 8.5C5.65296 7.27733 6.64769 6.2826 7.87037 6.2826C9.09304 6.2826 10.0878 7.27733 10.0878 8.5C10.0878 9.72267 9.09304 10.7174 7.87037 10.7174ZM14.2714 12.1956C13.7321 13.1297 13.2104 13.5033 11.9997 12.8044C11.2876 12.3933 10.5449 11.7125 10.0362 11.0222C10.5981 10.539 10.9973 9.87169 11.1393 9.11476C11.9909 9.21035 12.9511 9.51303 13.6627 9.92385C14.8734 10.6229 14.8107 11.2616 14.2714 12.1956Z"/>
</mask>
<path d="M14.217 8.96371L16.7171 4.63359L16.7169 4.63349L14.217 8.96371ZM13.2329 8.49997L11.4431 3.83128L-0.733137 8.49917L11.4426 13.1685L13.2329 8.49997ZM14.217 8.03625L16.7167 12.3666L16.7171 12.3663L14.217 8.03625ZM15.2316 4.24997L10.9014 6.74998L10.9015 6.75004L15.2316 4.24997ZM11.4453 3.23545L13.9451 7.56567L13.9453 7.56559L11.4453 3.23545ZM10.5516 3.85585L5.61344 3.0718L3.56886 15.9492L13.6994 7.74063L10.5516 3.85585ZM10.6421 2.77173L5.64206 2.77164V2.77173H10.6421ZM5.18911 3.85588L2.04134 7.74066L12.1716 15.9491L10.1273 3.0719L5.18911 3.85588ZM4.29542 3.23545L1.79546 7.5656L1.79559 7.56567L4.29542 3.23545ZM0.509133 4.25L-3.82093 1.74989L-3.82093 1.74989L0.509133 4.25ZM1.52372 8.03625L-0.976187 12.3664L-0.976106 12.3665L1.52372 8.03625ZM2.50783 8.49997L4.29777 13.1686L16.4742 8.50019L4.29791 3.83139L2.50783 8.49997ZM1.52369 8.96371L4.02365 13.2939L4.02372 13.2938L1.52369 8.96371ZM0.509133 12.75L-3.82097 15.25L-3.82097 15.25L0.509133 12.75ZM4.29542 13.7645L1.79559 9.43429L1.79539 9.43441L4.29542 13.7645ZM5.18911 13.1441L10.1273 13.9281L12.1716 1.05089L2.04134 9.25931L5.18911 13.1441ZM10.5516 13.1442L13.6994 9.25937L3.56889 1.05079L5.61347 13.9282L10.5516 13.1442ZM11.4453 13.7646L13.9453 9.43441L13.9451 9.43433L11.4453 13.7646ZM15.2316 12.75L19.5616 15.2502L19.5617 15.2501L15.2316 12.75ZM11.9997 4.19561L14.4996 8.52576L14.4997 8.52571L11.9997 4.19561ZM13.6627 7.07615L16.1626 11.4063L16.1628 11.4062L13.6627 7.07615ZM11.1392 7.88528L6.22499 8.80729L7.08152 13.3725L11.6973 12.854L11.1392 7.88528ZM10.0362 5.97782L6.01124 3.01135L3.2596 6.7448L6.77606 9.76882L10.0362 5.97782ZM8.97238 5.36181L7.31141 10.0779L11.6945 11.6215L13.5544 7.36306L8.97238 5.36181ZM6.76835 5.36181L2.18632 7.36306L4.04621 11.6214L8.42918 10.0779L6.76835 5.36181ZM2.07801 7.07612L-0.421993 11.4062L-0.421805 11.4063L2.07801 7.07612ZM1.4693 4.80436L5.79932 7.30454L5.79935 7.30449L1.4693 4.80436ZM3.74106 4.19561L6.24123 -0.134414L6.24085 -0.134635L3.74106 4.19561ZM5.70453 5.97779L8.96451 9.7689L12.4811 6.74501L9.72957 3.01148L5.70453 5.97779ZM4.60145 7.88524L4.04336 12.854L8.65922 13.3725L9.51571 8.80722L4.60145 7.88524ZM3.74106 12.8044L1.24104 8.47427L1.24096 8.47431L3.74106 12.8044ZM2.07801 9.92385L-0.421869 5.59366L-0.422082 5.59378L2.07801 9.92385ZM4.60148 9.11472L9.51574 8.19271L8.65922 3.62754L4.04342 4.14596L4.60148 9.11472ZM5.70456 11.0222L9.72958 13.9885L12.481 10.2551L8.96467 7.23118L5.70456 11.0222ZM6.76835 11.6382L8.42932 6.92214L4.04626 5.37845L2.18632 9.63694L6.76835 11.6382ZM8.97238 11.6382L13.5544 9.63694L11.6945 5.37858L7.31155 6.92209L8.97238 11.6382ZM14.2714 12.1956L18.6015 14.6958L18.6016 14.6955L14.2714 12.1956ZM11.9997 12.8044L9.4998 17.1346L9.49981 17.1346L11.9997 12.8044ZM10.0362 11.0222L6.77622 7.2311L3.25965 10.255L6.01118 13.9886L10.0362 11.0222ZM11.1393 9.11476L11.697 4.14596L7.08145 3.6279L6.22502 8.19278L11.1393 9.11476ZM13.6627 9.92385L16.1629 5.59383L16.1626 5.59366L13.6627 9.92385ZM16.7169 4.63349C16.1595 4.31171 15.5843 4.04664 15.0232 3.83148L11.4426 13.1685C11.5814 13.2217 11.6732 13.2685 11.7172 13.2939L16.7169 4.63349ZM15.0227 13.1687C15.5844 12.9533 16.1597 12.6881 16.7167 12.3666L11.7174 3.70594C11.6731 3.73148 11.5814 3.77827 11.4431 3.83128L15.0227 13.1687ZM16.7171 12.3663C18.2303 11.4926 19.9197 9.99429 20.5265 7.59986C21.1247 5.23966 20.376 3.16028 19.5616 1.74989L10.9015 6.75004C10.9879 6.89977 10.5555 6.23804 10.833 5.14322C11.1191 4.01416 11.8508 3.62889 11.717 3.70616L16.7171 12.3663ZM19.5617 1.74995C18.7483 0.341075 17.3228 -1.34701 14.9804 -2.00985C12.6031 -2.68257 10.4599 -1.96915 8.94531 -1.0947L13.9453 7.56559C14.0789 7.48841 13.3789 7.92961 12.2576 7.61232C11.1713 7.30492 10.8148 6.59991 10.9014 6.74998L19.5617 1.74995ZM8.94545 -1.09478C8.38771 -0.7728 7.87048 -0.407068 7.40381 -0.0289345L13.6994 7.74063C13.8151 7.64681 13.9015 7.59086 13.9451 7.56567L8.94545 -1.09478ZM15.4897 4.63989C15.5839 4.04651 15.6421 3.41564 15.6421 2.77173H5.64206C5.64206 2.82216 5.63677 2.92488 5.61344 3.0718L15.4897 4.63989ZM15.6421 2.77182C15.6421 1.02437 15.1891 -1.18787 13.4189 -2.91062C11.674 -4.60869 9.49889 -5 7.87037 -5V5C8.04327 5 7.25403 5.04362 6.44463 4.25594C5.60988 3.44359 5.64207 2.61722 5.64206 2.77164L15.6421 2.77182ZM7.87037 -5C6.24343 -5 4.06885 -4.60948 2.32369 -2.91242C0.552484 -1.19002 0.0986352 1.02267 0.0986352 2.77173H10.0986C10.0986 2.61759 10.1306 3.44442 9.29528 4.25675C8.48598 5.04375 7.69726 5 7.87037 5V-5ZM0.0986352 2.77173C0.0986352 3.41565 0.156757 4.0465 0.250958 4.63985L10.1273 3.0719C10.1039 2.9249 10.0986 2.82216 10.0986 2.77173H0.0986352ZM8.33689 -0.0289011C7.87043 -0.406867 7.35319 -0.772684 6.79524 -1.09478L1.79559 7.56567C1.83903 7.59075 1.92535 7.64668 2.04134 7.74066L8.33689 -0.0289011ZM6.79538 -1.0947C5.28204 -1.96841 3.13972 -2.68222 0.762664 -2.01047C-1.58029 -1.34836 -3.00668 0.339654 -3.82093 1.74989L4.8392 6.75011C4.92571 6.60026 4.56892 7.30553 3.48213 7.61265C2.36125 7.92941 1.66169 7.48836 1.79546 7.5656L6.79538 -1.0947ZM-3.82093 1.74989C-4.63447 3.1589 -5.38358 5.23744 -4.78643 7.59738C-4.18036 9.9925 -2.49099 11.4919 -0.976187 12.3664L4.02363 3.70607C3.89013 3.629 4.62219 4.01469 4.90802 5.14429C5.18496 6.2387 4.7527 6.89992 4.8392 6.75011L-3.82093 1.74989ZM-0.976106 12.3665C-0.418731 12.6882 0.156545 12.9534 0.717743 13.1685L4.29791 3.83139C4.15926 3.77823 4.06755 3.73143 4.02355 3.70602L-0.976106 12.3665ZM0.717891 3.83133C0.15644 4.04659 -0.418971 4.3118 -0.976346 4.63361L4.02372 13.2938C4.06766 13.2685 4.15929 13.2217 4.29777 13.1686L0.717891 3.83133ZM-0.976272 4.63356C-2.48963 5.50728 -4.17899 7.00568 -4.78581 9.40012C-5.38394 11.7603 -4.63527 13.8397 -3.82097 15.25L4.83924 10.25C4.75281 10.1003 5.1852 10.762 4.90775 11.8567C4.62162 12.9858 3.8899 13.3711 4.02365 13.2939L-0.976272 4.63356ZM-3.82097 15.25C-2.9847 16.6985 -1.53189 18.388 0.831235 19.0298C3.20285 19.6738 5.32144 18.9457 6.79544 18.0946L1.79539 9.43441C1.65426 9.51589 2.33974 9.07724 3.45201 9.3793C4.55579 9.67905 4.92303 10.3951 4.83923 10.25L-3.82097 15.25ZM6.79524 18.0947C7.35319 17.7726 7.87043 17.4068 8.33689 17.0289L2.04134 9.25931C1.92535 9.35329 1.83902 9.40922 1.79559 9.43429L6.79524 18.0947ZM0.250958 12.3601C0.156757 12.9535 0.0986352 13.5843 0.0986352 14.2282H10.0986C10.0986 14.1778 10.1039 14.0751 10.1273 13.9281L0.250958 12.3601ZM0.0986352 14.2282C0.0986352 15.9757 0.551594 18.1879 2.32183 19.9106C4.06672 21.6087 6.24183 22 7.87037 22V12C7.69747 12 8.48671 11.9564 9.2961 12.7441C10.1308 13.5564 10.0986 14.3827 10.0986 14.2282H0.0986352ZM7.87037 22C9.4973 22 11.6719 21.6095 13.417 19.9124C15.1882 18.19 15.6421 15.9773 15.6421 14.2283H5.6421C5.6421 14.3824 5.6101 13.5556 6.44545 12.7433C7.25476 11.9563 8.04347 12 7.87037 12V22ZM15.6421 14.2283C15.6421 13.5844 15.584 12.9535 15.4898 12.3601L5.61347 13.9282C5.6368 14.0751 5.6421 14.1778 5.6421 14.2283H15.6421ZM7.40384 17.0289C7.87052 17.4071 8.38775 17.7728 8.94549 18.0948L13.9451 9.43433C13.9015 9.40913 13.8152 9.35318 13.6994 9.25937L7.40384 17.0289ZM8.94534 18.0947C10.3633 18.9133 12.4478 19.6601 14.81 19.056C17.2009 18.4445 18.6931 16.7545 19.5616 15.2502L10.9016 10.2499C10.8229 10.3862 11.2057 9.65593 12.3322 9.36782C13.43 9.08707 14.0949 9.52082 13.9453 9.43441L8.94534 18.0947ZM19.5617 15.2501C20.3752 13.8411 21.1243 11.7626 20.5272 9.40265C19.9211 7.00754 18.2318 5.50814 16.7171 4.63359L11.717 13.2938C11.8506 13.3709 11.1185 12.9852 10.8327 11.8557C10.5558 10.7613 10.988 10.1001 10.9015 10.25L19.5617 15.2501ZM14.4997 8.52571C14.6854 8.41848 13.4656 9.21529 11.7285 8.60438C10.9323 8.32437 10.4305 7.87368 10.1871 7.61035C9.96853 7.37383 9.8876 7.21134 9.9413 7.30436L18.6016 2.30436C18.2868 1.7591 17.2475 -0.0550383 15.0462 -0.829227C12.6107 -1.68575 10.5246 -0.726279 9.49963 -0.134489L14.4997 8.52571ZM9.9413 7.30436C9.99498 7.39733 9.89471 7.24596 9.79916 6.93837C9.69278 6.5959 9.55343 5.93593 9.70905 5.10645C10.0485 3.29681 11.3484 2.63883 11.1626 2.74608L16.1628 11.4062C17.1877 10.8144 19.0616 9.48761 19.5376 6.95034C19.9679 4.65683 18.9164 2.84976 18.6016 2.30436L9.9413 7.30436ZM11.1628 2.74596C11.1694 2.74218 11.0904 2.78548 10.9333 2.83559C10.7808 2.88428 10.6502 2.90877 10.5812 2.91652L11.6973 12.854C13.1726 12.6883 14.8039 12.1908 16.1626 11.4063L11.1628 2.74596ZM16.0535 6.96326C15.6954 5.05444 14.6917 3.38686 13.2963 2.18683L6.77606 9.76882C6.50447 9.53527 6.29911 9.20232 6.22499 8.80729L16.0535 6.96326ZM14.0611 8.94429C14.1022 8.88852 14.1887 8.78766 14.3072 8.67977C14.4292 8.56875 14.5062 8.52195 14.4996 8.52576L9.49971 -0.134538C8.14012 0.650405 6.89268 1.81541 6.01124 3.01135L14.0611 8.94429ZM7.87037 6.10869C7.97775 6.10869 7.79654 6.11984 7.4824 6.0488C7.13263 5.9697 6.49138 5.7604 5.85081 5.21088C4.45328 4.01198 4.53341 2.5572 4.53341 2.77173H14.5334C14.5334 1.58824 14.3213 -0.698058 12.3619 -2.37897C10.5908 -3.89837 8.50003 -3.89131 7.87037 -3.89131V6.10869ZM4.53341 2.77173C4.53341 2.76416 4.5314 2.85424 4.4963 3.01525C4.46219 3.1717 4.41812 3.29696 4.39035 3.36056L13.5544 7.36306C14.1487 6.00232 14.5334 4.34064 14.5334 2.77173H4.53341ZM10.6333 0.64575C9.76518 0.339989 8.83323 0.173911 7.87037 0.173911V10.1739C7.67974 10.1739 7.48948 10.1406 7.31141 10.0779L10.6333 0.64575ZM7.87037 0.173911C6.90748 0.173911 5.97558 0.340006 5.10753 0.6457L8.42918 10.0779C8.25129 10.1406 8.06108 10.1739 7.87037 10.1739V0.173911ZM11.3504 3.36056C11.3226 3.29693 11.2785 3.17166 11.2444 3.01525C11.2093 2.85428 11.2073 2.76421 11.2073 2.77173H1.20732C1.20732 4.34074 1.59202 6.00235 2.18632 7.36306L11.3504 3.36056ZM11.2073 2.77173C11.2073 2.55728 11.2874 4.01203 9.8899 5.2109C9.24935 5.7604 8.60812 5.9697 8.25836 6.0488C7.94421 6.11984 7.763 6.10869 7.87037 6.10869V-3.89131C7.24068 -3.89131 5.15 -3.89836 3.37888 -2.379C1.41947 -0.698111 1.20732 1.58816 1.20732 2.77173H11.2073ZM4.57802 2.74599C4.3923 2.63877 5.69214 3.29673 6.03166 5.10638C6.18729 5.93587 6.04795 6.59588 5.94154 6.9384C5.84597 7.24605 5.74567 7.39745 5.79932 7.30454L-2.86072 2.30418C-3.1757 2.84968 -4.22717 4.65678 -3.79685 6.95038C-3.32081 9.48765 -1.44696 10.8145 -0.421993 11.4062L4.57802 2.74599ZM5.79935 7.30449C5.85301 7.21156 5.77204 7.37408 5.55343 7.61062C5.31003 7.87397 4.80819 8.32456 4.01213 8.6045C2.27535 9.21525 1.0557 8.41873 1.24127 8.52586L6.24085 -0.134635C5.21577 -0.7264 3.12988 -1.68555 0.694703 -0.829199C-1.50653 -0.0551203 -2.54579 1.75875 -2.86075 2.30423L5.79935 7.30449ZM1.24088 8.52564C1.23449 8.52195 1.31165 8.56885 1.43361 8.67984C1.55214 8.78772 1.6385 8.88849 1.67948 8.9441L9.72957 3.01148C8.84798 1.81523 7.60049 0.650428 6.24123 -0.134414L1.24088 8.52564ZM2.44454 2.18668C1.04895 3.38676 0.0453124 5.05443 -0.312809 6.96327L9.51571 8.80722C9.44161 9.2022 9.23624 9.53524 8.96451 9.7689L2.44454 2.18668ZM5.15954 2.91649C5.09055 2.90874 4.96 2.88426 4.80741 2.83556C4.65038 2.78545 4.57132 2.74213 4.57783 2.74589L-0.421805 11.4063C0.936787 12.1907 2.56801 12.6883 4.04336 12.854L5.15954 2.91649ZM1.24096 8.47431C1.05537 8.58147 2.27523 7.7847 4.01229 8.39562C4.80841 8.67562 5.31025 9.12627 5.55359 9.38959C5.77215 9.62609 5.85308 9.78857 5.79939 9.69557L-2.86079 14.6957C-2.54596 15.241 -1.50673 17.055 0.694523 17.8292C3.12997 18.6857 5.21607 17.7263 6.24115 17.1345L1.24096 8.47431ZM5.79939 9.69557C5.74573 9.60263 5.84601 9.75402 5.94157 10.0616C6.04796 10.4041 6.1873 11.0641 6.03169 11.8936C5.6922 13.7032 4.39241 14.3611 4.57811 14.2539L-0.422082 5.59378C-1.44707 6.18558 -3.32085 7.51244 -3.79685 10.0497C-4.22712 12.3432 -3.17571 14.1503 -2.86079 14.6957L5.79939 9.69557ZM4.5779 14.254C4.57137 14.2578 4.6504 14.2145 4.80739 14.1644C4.95994 14.1157 5.0905 14.0912 5.15955 14.0835L4.04342 4.14596C2.56809 4.31167 0.936855 4.80924 -0.421869 5.59366L4.5779 14.254ZM-0.312769 10.0367C0.0453651 11.9456 1.049 13.6131 2.44444 14.8132L8.96467 7.23118C9.23626 7.46473 9.44162 7.79768 9.51574 8.19271L-0.312769 10.0367ZM1.67954 8.05583C1.6385 8.11151 1.5521 8.21232 1.43359 8.32019C1.31163 8.43119 1.23453 8.47803 1.24104 8.47427L6.24108 17.1345C7.60056 16.3496 8.84805 15.1847 9.72958 13.9885L1.67954 8.05583ZM7.87037 10.8913C7.76298 10.8913 7.94419 10.8802 8.25834 10.9512C8.6081 11.0303 9.24935 11.2396 9.88992 11.7891C11.2875 12.988 11.2073 14.4428 11.2073 14.2283H1.20732C1.20732 15.4118 1.41943 17.6981 3.37884 19.379C5.14997 20.8984 7.2407 20.8913 7.87037 20.8913V10.8913ZM11.2073 14.2283C11.2073 14.2358 11.2093 14.1457 11.2444 13.9848C11.2785 13.8283 11.3226 13.7031 11.3504 13.6394L2.18632 9.63694C1.59202 10.9977 1.20732 12.6593 1.20732 14.2283H11.2073ZM5.10739 16.3542C5.97555 16.66 6.90754 16.8261 7.87037 16.8261V6.82609C8.06102 6.82609 8.25125 6.85942 8.42932 6.92214L5.10739 16.3542ZM7.87037 16.8261C8.83327 16.8261 9.76516 16.66 10.6332 16.3543L7.31155 6.92209C7.48943 6.85945 7.67964 6.82609 7.87037 6.82609V16.8261ZM4.39035 13.6394C4.41813 13.7031 4.4622 13.8283 4.4963 13.9848C4.5314 14.1457 4.53341 14.2358 4.53341 14.2283H14.5334C14.5334 12.6593 14.1487 10.9977 13.5544 9.63694L4.39035 13.6394ZM4.53341 14.2283C4.53341 14.4428 4.45328 12.988 5.85081 11.7891C6.49138 11.2396 7.13263 11.0303 7.4824 10.9512C7.79654 10.8802 7.97775 10.8913 7.87037 10.8913V20.8913C8.50004 20.8913 10.5908 20.8984 12.3619 19.379C14.3213 17.6981 14.5334 15.4118 14.5334 14.2283H4.53341ZM7.87037 5.7174C9.40911 5.7174 10.653 6.96125 10.653 8.5H0.652961C0.652961 12.4841 3.88627 15.7174 7.87037 15.7174V5.7174ZM10.653 8.5C10.653 10.0388 9.40912 11.2826 7.87037 11.2826V1.2826C3.88627 1.2826 0.652961 4.5159 0.652961 8.5H10.653ZM7.87037 11.2826C6.33161 11.2826 5.08777 10.0388 5.08777 8.5H15.0878C15.0878 4.51591 11.8545 1.2826 7.87037 1.2826V11.2826ZM5.08777 8.5C5.08777 6.96125 6.33162 5.7174 7.87037 5.7174V15.7174C11.8545 15.7174 15.0878 12.4841 15.0878 8.5H5.08777ZM9.94137 9.69553C9.88766 9.78855 9.96859 9.62607 10.1872 9.38956C10.4305 9.12623 10.9324 8.67556 11.7286 8.39557C13.4656 7.78472 14.6854 8.58146 14.4995 8.47418L9.49981 17.1346C10.5247 17.7263 12.6107 18.6857 15.0461 17.8292C17.2474 17.0551 18.2867 15.241 18.6015 14.6958L9.94137 9.69553ZM14.4995 8.47418C14.5062 8.478 14.4291 8.43121 14.3072 8.32024C14.1887 8.2124 14.1023 8.11159 14.0612 8.05586L6.01118 13.9886C6.89265 15.1846 8.14013 16.3496 9.4998 17.1346L14.4995 8.47418ZM13.2962 14.8133C14.6918 13.6132 15.6954 11.9456 16.0535 10.0367L6.22502 8.19278C6.29912 7.79781 6.50449 7.46477 6.77622 7.2311L13.2962 14.8133ZM10.5816 14.0836C10.6504 14.0913 10.7808 14.1157 10.9333 14.1644C11.0903 14.2145 11.1693 14.2578 11.1628 14.254L16.1626 5.59366C14.804 4.80931 13.1727 4.31159 11.697 4.14596L10.5816 14.0836ZM11.1625 14.2539C11.3483 14.3611 10.0485 13.7032 9.70903 11.8935C9.55342 11.064 9.69277 10.4041 9.79914 10.0617C9.89468 9.75409 9.99493 9.60275 9.94123 9.69576L18.6016 14.6955C18.9164 14.1502 19.9678 12.3432 19.5376 10.0497C19.0616 7.51246 17.1878 6.18561 16.1629 5.59383L11.1625 14.2539Z" fill="white" mask="url(#path-1-inside-1_29_208)"/>
</svg>
