<svg width="23" height="22" viewBox="0 0 23 22" fill="none" xmlns="http://www.w3.org/2000/svg">
<path d="M3.15967 7.50012C3.15967 6.55731 3.15967 6.08591 3.45256 5.79302C3.74545 5.50012 4.21686 5.50012 5.15967 5.50012H17.5902C18.533 5.50012 19.0044 5.50012 19.2973 5.79302C19.5902 6.08591 19.5902 6.55731 19.5902 7.50012V15.1112C19.5902 16.054 19.5902 16.5254 19.2973 16.8183C19.0044 17.1112 18.533 17.1112 17.5902 17.1112H5.15967C4.21686 17.1112 3.74545 17.1112 3.45256 16.8183C3.15967 16.5254 3.15967 16.054 3.15967 15.1112V7.50012Z" stroke="white" stroke-width="2"/>
<path d="M4.29724 5.8667L9.02657 9.29676C10.1596 10.1185 10.7261 10.5294 11.375 10.5294C12.0239 10.5294 12.5905 10.1185 13.7235 9.29676L18.4528 5.8667" stroke="white" stroke-width="2"/>
</svg>
