<svg width="20" height="20" viewBox="0 0 20 20" fill="none" xmlns="http://www.w3.org/2000/svg">
<path d="M5.19261 17.7632C4.57988 18.1088 4.27351 18.2816 4.02351 18.2875C3.6459 18.2964 3.2955 18.0917 3.11771 17.7585C3 17.5378 3 17.1861 3 16.4826L3 6C3 5.05719 3 4.58579 3.29289 4.29289C3.58579 4 4.05719 4 5 4L14 4C14.9428 4 15.4142 4 15.7071 4.2929C16 4.58579 16 5.05719 16 6L16 16.4826C16 17.1861 16 17.5378 15.8823 17.7585C15.7045 18.0917 15.3541 18.2964 14.9765 18.2875C14.7265 18.2816 14.4201 18.1088 13.8074 17.7631V17.7631C13.5713 17.6299 13.4532 17.5633 13.3306 17.5306C13.1462 17.4813 12.9516 17.4858 12.7697 17.5436C12.6488 17.582 12.5339 17.6539 12.3042 17.7979L12.1591 17.8889C11.8152 18.1044 11.6432 18.2122 11.457 18.2471C11.3352 18.27 11.2102 18.27 11.0885 18.2471C10.9022 18.2122 10.7303 18.1044 10.3864 17.8889V17.8889C10.0425 17.6733 9.87052 17.5656 9.68427 17.5307C9.56248 17.5078 9.43752 17.5078 9.31573 17.5307C9.12948 17.5656 8.95753 17.6733 8.61364 17.8889V17.8889C8.26974 18.1044 8.09779 18.2122 7.91154 18.2471C7.78976 18.27 7.66479 18.27 7.54301 18.2471C7.35676 18.2122 7.18481 18.1044 6.84091 17.8889L6.69579 17.7979C6.46606 17.654 6.3512 17.582 6.23028 17.5436C6.04838 17.4858 5.85376 17.4813 5.66938 17.5306C5.54681 17.5633 5.42875 17.6299 5.19261 17.7632V17.7632Z" stroke="white" stroke-width="1.5"/>
<path d="M6 7L13 7M6 11L9.0625 11M11 11L13 11M6 15L7.75 15M9.5 15L13 15" stroke="white" stroke-width="1.5" stroke-linecap="round"/>
</svg>
