<svg width="19" height="20" viewBox="0 0 19 20" fill="none" xmlns="http://www.w3.org/2000/svg">
<path d="M18 18.0444V16.8275C18 15.556 18 14.9203 17.7215 14.4494C17.55 14.1594 17.3081 13.9175 17.0181 13.746C16.5472 13.4675 15.9115 13.4675 14.64 13.4675H10.2446C8.97322 13.4675 8.33751 13.4675 7.86656 13.746C7.5766 13.9175 7.33464 14.1594 7.16316 14.4494C6.88464 14.9203 6.88464 15.556 6.88464 16.8275V18.0444" stroke="white" stroke-width="2" stroke-linecap="round" stroke-linejoin="round"/>
<path d="M1 14.7752V13.3582C1 12.2759 1 11.7347 1.20394 11.3184C1.39921 10.9198 1.72153 10.5975 2.12012 10.4022C2.53642 10.1982 3.07762 10.1982 4.16 10.1982H5.57692" stroke="white" stroke-width="2" stroke-linecap="round" stroke-linejoin="round"/>
<path d="M15.8206 7.80062C15.8206 9.48579 14.4545 10.8519 12.7693 10.8519C11.0841 10.8519 9.71803 9.48579 9.71803 7.80062C9.71803 6.11544 11.0841 4.74934 12.7693 4.74934C14.4545 4.74934 15.8206 6.11544 15.8206 7.80062Z" stroke="white" stroke-width="2"/>
<path d="M8.48279 2.36408C7.93615 1.54191 7.00138 1.00005 5.94006 1.00005C4.25488 1.00005 2.88878 2.36616 2.88878 4.05133C2.88878 5.37988 3.73785 6.51012 4.92296 6.92899" stroke="white" stroke-width="2" stroke-linecap="round"/>
</svg>
