<svg width="19" height="21" viewBox="0 0 19 21" fill="none" xmlns="http://www.w3.org/2000/svg">
<path d="M9.60205 17.1407V11.4331" stroke="#568147" stroke-width="2" stroke-linecap="round"/>
<path d="M2.46754 19.5189C2.46754 19.5189 3.89443 17.6163 9.60201 17.6163C15.3096 17.6163 17.6877 19.5189 17.6877 19.5189" stroke="#568147" stroke-width="2" stroke-linecap="round"/>
<path d="M1.70872 1.70871C2.65243 0.764994 5.33004 1.91254 7.68933 4.27183C10.0486 6.63111 11.1962 9.30872 10.2524 10.2524C9.30873 11.1962 6.63112 10.0486 4.27184 7.68932C1.91255 5.33003 0.765004 2.65242 1.70872 1.70871Z" stroke="#568147" stroke-width="2"/>
<path d="M9.64677 10.6401C10.8866 10.375 12.5591 9.3522 14.0964 7.8149C16.4557 5.45562 17.6032 2.77801 16.6595 1.83429C15.7158 0.89058 13.0382 2.03813 10.6789 4.39741C10.218 4.85827 9.8034 5.33127 9.44157 5.80113" stroke="#568147" stroke-width="2" stroke-linecap="round"/>
</svg>
